<?xml version="1.0" encoding="UTF-8"?>
<svg id="Layer_1" data-name="Layer 1" xmlns="http://www.w3.org/2000/svg" viewBox="0 0 90 90">
  <defs>
    <style>
      .cls-1 {
        fill: #3f3f3f;
      }
    </style>
  </defs>
  <path class="cls-1" d="M20.76,66.56c0-1.85.59-3.62,1.69-5.1,1.29-1.72,2.99-2.97,4.67-3.41.06-.02.1-.07.1-.14s-.05-.12-.11-.13c-2.06-.36-3.41-1.26-4.68-3.12l-.02-.02c-1.08-1.6-1.66-3.47-1.66-5.42v-8.55c0-1.32.36-2.62,1.06-3.87.72-1.29,1.99-2.16,3.47-2.4l4.21-.67,10.75-1.72,9.14-1.46c.19-.03,4.72-.81,5.46-1.07,1.87-.64,3.49-1.92,4.55-3.6.65-1.02,1.07-2.14,1.26-3.34h0s0-.06.01-.09c0-.05,0-.12,0-.22,0-.17.01-.43.02-.76.01-.55.02-1.33.03-2.3.02-1.65.04-3.33.04-3.34,0-.04-.02-.08-.05-.1-.02-.02-.06-.03-.09-.03,0,0-.01,0-.02,0l-1.64.26-4.45.71s0,0,0,0l-1.93.31-3.25.52c-.07.01-.11.07-.11.13v9.64l-2.77.44-6.11.98V12.34l9.03-1.44,3.42-.55,7.84-1.25,3.93-.63c.19-.03.39-.05.58-.05,1.48,0,2.8.87,3.35,2.23.42,1.03.63,2.11.63,3.23,0,.18,0,.38-.02.58,0,0,0,0,0,0l-.07,8.78c-.01,1.4-.36,2.74-1,3.89-.04.08-.09.16-.14.24-1.16,1.93-3.08,3.34-5.26,3.87-.06.02-.11.07-.1.14s.05.12.12.13c2.26.31,4.33,1.56,5.69,3.4.12.17.24.34.35.51.34.54.52,1.18.52,1.84v6.87l-.3.05-8.17,1.31v-1.9c0-1.85-.57-3.62-1.64-5.12-.53-.74-1.17-1.39-1.9-1.94-.02-.02-.05-.03-.08-.03,0,0-.01,0-.02,0l-3.88.62-3.9.62c-.07.01-.11.07-.11.13v9.45l-8.87,1.42v-9.4s-.02-.08-.05-.1c-.02-.02-.06-.03-.09-.03,0,0-.01,0-.02,0l-10.75,1.72c-.07.01-.11.07-.11.13v8.76c0,.33.14.63.39.84,1.57,1.3,3.56,2.02,5.61,2.02.44,0,.88-.03,1.31-.1.02,0,.03,0,.05,0h0s.15-.02.15-.02h.05s.91-.15.91-.15l2.43-.39,8.99-1.44v26.43l-9.03,1.44-19.45,3.11v-15ZM38.13,58.88c-1.24,0-2.44.25-3.56.75-3.17,1.41-5.22,4.56-5.22,8.04v5.41s.02.08.05.1c.02.02.06.03.09.03,0,0,.01,0,.02,0l1.69-.27,9.06-1.45c.07-.01.11-.07.11-.13v-12.09c0-.06-.04-.12-.1-.13-.69-.17-1.41-.26-2.13-.26Z"/>
  <path class="cls-1" d="M65.17,8.55c.69,0,1.36.2,1.93.58.58.38,1.03.92,1.29,1.56.41,1.01.62,2.08.62,3.18,0,.18,0,.37-.02.57,0,0,0,.01,0,.02l-.07,8.78c-.01,1.38-.35,2.7-.98,3.82-.04.08-.09.16-.14.24-.57.94-1.31,1.75-2.19,2.41-.9.67-1.9,1.14-2.98,1.4-.13.03-.21.15-.2.28,0,.13.1.24.23.25,1.13.16,2.19.54,3.17,1.13.95.58,1.77,1.33,2.43,2.22.12.16.24.33.34.51.32.52.5,1.13.5,1.77v6.75l-.18.03-8.02,1.28v-1.74c0-1.88-.58-3.68-1.67-5.2-.54-.75-1.19-1.41-1.93-1.97-.05-.03-.1-.05-.16-.05-.01,0-.03,0-.04,0l-3.88.62-3.9.62c-.13.02-.23.13-.23.27v9.33l-4.48.72-1.99.32-2.13.34v-9.24c0-.08-.03-.15-.09-.2-.05-.04-.11-.06-.17-.06-.01,0-.03,0-.04,0l-2.16.34-8.59,1.37c-.13.02-.23.13-.23.27v8.76c0,.37.16.71.44.95,1.6,1.32,3.62,2.05,5.69,2.05.45,0,.89-.03,1.33-.1.02,0,.04,0,.05,0h0s.15-.02.15-.02c0,0,0,0,0,0h.02s.02,0,.02,0l.91-.14,2.43-.39,6.94-1.11,1.89-.3v26.16l-8.91,1.43-10.75,1.72-8.54,1.37v-14.85c0-1.83.58-3.56,1.67-5.02.59-.79,1.3-1.5,2.04-2.06.83-.63,1.69-1.06,2.56-1.29.12-.03.21-.15.2-.27,0-.13-.1-.23-.22-.25-1.07-.19-1.96-.54-2.73-1.08-.67-.48-1.27-1.11-1.87-1.99h0s0-.02,0-.02c-1.07-1.58-1.63-3.42-1.63-5.34v-8.55c0-1.3.35-2.58,1.04-3.81.34-.61.83-1.15,1.42-1.55.58-.4,1.25-.67,1.95-.78l4.21-.67,3.93-.63,6.82-1.09,9.14-1.46s0,0,0,0c.19-.03,4.73-.81,5.48-1.07,1.9-.65,3.54-1.95,4.62-3.65.66-1.03,1.09-2.17,1.28-3.38,0-.01,0-.03,0-.05,0-.02,0-.04,0-.07,0-.05,0-.12,0-.22,0-.17.01-.43.02-.76.01-.56.02-1.33.03-2.3.02-1.65.04-3.33.04-3.34,0-.08-.03-.15-.09-.21-.05-.04-.11-.07-.18-.07-.01,0-.03,0-.04,0l-1.64.26-4.44.71s0,0-.01,0l-1.93.31-3.25.52c-.13.02-.23.13-.23.27v9.53l-2.65.42-5.95.95V12.45l8.91-1.43,3.42-.55,7.84-1.25,3.93-.63c.18-.03.37-.04.56-.04M29.48,73.34s.03,0,.04,0l1.69-.27,4.81-.77,4.25-.68c.13-.02.23-.13.23-.27v-12.09c0-.12-.08-.23-.2-.26-.7-.18-1.43-.26-2.16-.26-1.26,0-2.47.26-3.62.76-3.22,1.43-5.3,4.63-5.3,8.16v5.41c0,.08.03.15.09.2.05.04.11.06.17.06M65.17,8.28c-.2,0-.4.02-.6.05l-3.93.63-7.84,1.25-3.42.55-9.14,1.46v16.63l6.26-1,2.88-.46v-9.76l3.25-.52,1.93-.31h0l4.45-.71,1.64-.26s-.07,6.69-.11,6.69h0c-.19,1.19-.62,2.31-1.24,3.29-1.04,1.64-2.62,2.9-4.48,3.54-.74.26-5.44,1.06-5.44,1.06l-9.14,1.46-6.82,1.09-3.93.63-4.21.67c-1.5.24-2.82,1.14-3.56,2.47-.66,1.18-1.08,2.52-1.08,3.94v8.55c0,1.96.58,3.87,1.68,5.49,0,0,.01.02.02.03,1.12,1.64,2.44,2.78,4.77,3.18-1.92.5-3.59,1.91-4.75,3.46-1.08,1.44-1.72,3.24-1.72,5.18v15.16l8.85-1.42,10.75-1.72,9.14-1.46v-26.71l-2.2.35-6.94,1.11-2.43.39-.91.15s-.03,0-.04,0l-.15.02s-.03,0-.04,0c-.42.06-.86.1-1.3.1-2.1,0-4.02-.75-5.52-1.99-.22-.18-.35-.46-.35-.74v-8.76l8.59-1.37,2.16-.34v9.56l2.44-.39,1.99-.32,4.71-.75v-9.56l3.9-.62,3.88-.62c.72.54,1.35,1.18,1.87,1.91,1.02,1.42,1.62,3.16,1.62,5.04v2.06l8.33-1.33.41-.06v-6.98c0-.67-.18-1.34-.54-1.91-.11-.18-.23-.35-.35-.52-1.35-1.84-3.41-3.13-5.78-3.46,2.26-.55,4.17-2,5.34-3.93.05-.08.1-.16.14-.24.68-1.2,1-2.57,1.01-3.95l.07-8.78c.01-.19.02-.39.02-.58,0-1.16-.23-2.27-.64-3.28-.58-1.42-1.98-2.31-3.48-2.31h0ZM29.48,73.07v-5.41c0-3.53,2.11-6.57,5.14-7.91,1.07-.48,2.26-.74,3.51-.74.72,0,1.43.09,2.1.26v12.09l-4.25.68-4.81.77-1.69.27h0Z"/>
</svg>