<svg xmlns="http://www.w3.org/2000/svg" viewBox="0 0 90 90">
  <path fill="currentColor" d="M20.76,66.56c0-1.85.59-3.62,1.69-5.1,1.29-1.72,2.99-2.97,4.67-3.41.06-.02.1-.07.1-.14s-.05-.12-.11-.13c-2.06-.36-3.41-1.26-4.68-3.12l-.02-.02c-1.08-1.6-1.66-3.47-1.66-5.42v-8.55c0-1.32.36-2.62,1.06-3.87.72-1.29,1.99-2.16,3.47-2.4l4.21-.67,10.75-1.72,9.14-1.46c.19-.03,4.72-.81,5.46-1.07,1.87-.64,3.49-1.92,4.55-3.6.65-1.02,1.07-2.14,1.26-3.34h0s0-.06.01-.09c0-.05,0-.12,0-.22,0-.17.01-.43.02-.76.01-.55.02-1.33.03-2.3.02-1.65.04-3.33.04-3.34,0-.04-.02-.08-.05-.1-.02-.02-.06-.03-.09-.03,0,0-.01,0-.02,0l-1.64.26-4.45.71s0,0,0,0l-1.93.31-3.25.52c-.07.01-.11.07-.11.13v9.64l-2.77.44-6.11.98V12.34l9.03-1.44,3.42-.55,7.84-1.25,3.93-.63c.19-.03.39-.05.58-.05,1.48,0,2.8.87,3.35,2.23.42,1.03.63,2.11.63,3.23,0,.18,0,.38-.02.58,0,0,0,0,0,0l-.07,8.78c-.01,1.4-.36,2.74-1,3.89-.04.08-.09.16-.14.24-1.16,1.93-3.08,3.34-5.26,3.87-.06.02-.11.07-.1.14s.05.12.12.13c2.26.31,4.33,1.56,5.69,3.4.12.17.24.34.35.51.34.54.52,1.18.52,1.84v6.87l-.3.05-8.17,1.31v-1.9c0-1.85-.57-3.62-1.64-5.12-.53-.74-1.17-1.39-1.9-1.94-.02-.02-.05-.03-.08-.03,0,0-.01,0-.02,0l-3.88.62-3.9.62c-.07.01-.11.07-.11.13v9.45l-8.87,1.42v-9.4s-.02-.08-.05-.1c-.02-.02-.06-.03-.09-.03,0,0-.01,0-.02,0l-10.75,1.72c-.07.01-.11.07-.11.13v8.76c0,.33.14.63.39.84,1.57,1.3,3.56,2.02,5.61,2.02.44,0,.88-.03,1.31-.1.02,0,.03,0,.05,0h0s.15-.02.15-.02h.05s.91-.15.91-.15l2.43-.39,8.99-1.44v26.43l-9.03,1.44-19.45,3.11v-15ZM38.13,58.88c-1.24,0-2.44.25-3.56.75-3.17,1.41-5.22,4.56-5.22,8.04v5.41s.02.08.05.1c.02.02.06.03.09.03,0,0,.01,0,.02,0l1.69-.27,9.06-1.45c.07-.01.11-.07.11-.13v-12.09c0-.06-.04-.12-.1-.13-.69-.17-1.41-.26-2.13-.26Z" />
</svg>