<svg xmlns="http://www.w3.org/2000/svg" version="1.1" xmlns:xlink="http://www.w3.org/1999/xlink" width="1000" height="1000"><g clip-path="url(#SvgjsClipPath1270)"><rect width="1000" height="1000" fill="#ffffff"></rect><g transform="matrix(16.666666666666668,0,0,16.666666666666668,100,100)"><svg xmlns="http://www.w3.org/2000/svg" version="1.1" xmlns:xlink="http://www.w3.org/1999/xlink" width="48" height="48"><svg id="Layer_1" data-name="Layer 1" xmlns="http://www.w3.org/2000/svg" viewBox="0 0 48 48">
  <defs>
    <style>
      .cls-1 {
        fill: #3f3f3f;
      }

      .cls-2 {
        fill: #f9f9ed;
      }
    </style>
  <clipPath id="SvgjsClipPath1270"><rect width="1000" height="1000" x="0" y="0" rx="350" ry="350"></rect></clipPath></defs>
  <rect class="cls-2" width="48" height="48"></rect>
  <g>
    <path class="cls-1" d="M11.07,35.5c0-.99.31-1.93.9-2.72.69-.92,1.6-1.58,2.49-1.82.03,0,.05-.04.05-.07s-.03-.06-.06-.07c-1.1-.19-1.82-.67-2.5-1.67h0c-.58-.87-.88-1.87-.88-2.9v-4.56c0-.7.19-1.4.57-2.07.39-.69,1.06-1.15,1.85-1.28l2.25-.36,5.73-.92,4.88-.78c.1-.02,2.52-.43,2.91-.57,1-.34,1.86-1.03,2.43-1.92.35-.54.57-1.14.67-1.78h0s0-.03,0-.05c0-.03,0-.07,0-.11,0-.09,0-.23,0-.4,0-.3.01-.71.02-1.23.01-.88.02-1.77.02-1.78,0-.02,0-.04-.02-.06-.01-.01-.03-.02-.05-.02,0,0,0,0-.01,0l-.87.14-2.37.38s0,0,0,0l-1.03.16-1.73.28s-.06.04-.06.07v5.14l-1.47.24-3.26.52V6.58l4.81-.77,1.83-.29,4.18-.67,2.1-.34c.1-.02.21-.02.31-.02.79,0,1.49.47,1.79,1.19.22.55.34,1.13.34,1.72,0,.1,0,.2-.01.31,0,0,0,0,0,0l-.04,4.68c0,.75-.19,1.46-.53,2.07-.02.04-.05.09-.07.13-.62,1.03-1.64,1.78-2.8,2.07-.03,0-.06.04-.05.07s.03.06.06.07c1.2.17,2.31.83,3.03,1.82.07.09.13.18.19.27.18.29.28.63.28.98v3.66l-.16.02-4.36.7v-1.01c0-.99-.3-1.93-.88-2.73-.28-.39-.62-.74-1.01-1.03-.01,0-.03-.01-.04-.01,0,0,0,0-.01,0l-2.07.33-2.08.33s-.06.04-.06.07v5.04l-4.73.76v-5.01s0-.04-.03-.05c-.01-.01-.03-.02-.05-.02,0,0,0,0-.01,0l-5.73.92s-.06.04-.06.07v4.67c0,.17.08.34.21.45.84.69,1.9,1.08,2.99,1.08.24,0,.47-.02.7-.05,0,0,.02,0,.02,0h0s.08-.01.08-.01h.03s.49-.08.49-.08l1.3-.21,4.79-.77v14.1l-4.81.77-10.37,1.66v-8ZM20.34,31.4c-.66,0-1.3.13-1.9.4-1.69.75-2.79,2.43-2.79,4.29v2.89s0,.04.03.05c.01.01.03.02.05.02,0,0,0,0,.01,0l.9-.14,4.83-.77s.06-.04.06-.07v-6.45s-.02-.06-.05-.07c-.37-.09-.75-.14-1.14-.14Z"></path>
    <path class="cls-1" d="M34.76,4.56c.37,0,.72.11,1.03.31.31.2.55.49.69.83.22.54.33,1.11.33,1.69,0,.1,0,.2,0,.3,0,0,0,0,0,0l-.04,4.68c0,.73-.19,1.44-.52,2.04-.02.04-.05.08-.07.13-.3.5-.7.93-1.17,1.28-.48.35-1.01.61-1.59.75-.07.02-.11.08-.11.15,0,.07.06.13.12.13.6.08,1.17.29,1.69.6.51.31.94.71,1.3,1.19.06.09.13.18.18.27.17.28.26.6.26.94v3.6l-.1.02-4.28.68v-.93c0-1-.31-1.96-.89-2.77-.29-.4-.63-.75-1.03-1.05-.02-.02-.06-.03-.09-.03,0,0-.02,0-.02,0l-2.07.33-2.08.33c-.07.01-.12.07-.12.14v4.98l-2.39.38-1.06.17-1.13.18v-4.93s-.02-.08-.05-.11c-.03-.02-.06-.03-.09-.03,0,0-.02,0-.02,0l-1.15.18-4.58.73c-.07.01-.12.07-.12.14v4.67c0,.2.09.38.24.51.85.71,1.93,1.09,3.04,1.09.24,0,.48-.02.71-.05.01,0,.02,0,.03,0h0s.08-.01.08-.01c0,0,0,0,0,0h.01s0,0,0,0l.49-.08,1.3-.21,3.7-.59,1.01-.16v13.95l-4.75.76-5.73.92-4.56.73v-7.92c0-.97.31-1.9.89-2.68.32-.42.69-.8,1.09-1.1.44-.34.9-.57,1.37-.69.07-.02.11-.08.11-.15,0-.07-.05-.12-.12-.14-.57-.1-1.05-.29-1.46-.58-.36-.25-.68-.59-.99-1.06h0s0-.01,0-.01c-.57-.84-.87-1.83-.87-2.85v-4.56c0-.69.19-1.37.56-2.03.18-.33.44-.61.76-.83.31-.21.67-.36,1.04-.42l2.25-.36,2.09-.33,3.64-.58,4.88-.78s0,0,0,0c.1-.02,2.52-.43,2.92-.57,1.01-.35,1.89-1.04,2.47-1.95.35-.55.58-1.16.68-1.8,0,0,0-.02,0-.02,0,0,0-.02,0-.04,0-.03,0-.06,0-.12,0-.09,0-.23,0-.41,0-.3.01-.71.02-1.23.01-.88.02-1.77.02-1.78,0-.04-.02-.08-.05-.11-.03-.02-.06-.03-.09-.03,0,0-.02,0-.02,0l-.87.14-2.37.38s0,0,0,0l-1.03.16-1.73.28c-.07.01-.12.07-.12.14v5.08l-1.41.23-3.17.51V6.64l4.75-.76,1.83-.29,4.18-.67,2.1-.34c.1-.02.2-.02.3-.02M15.72,39.12s.02,0,.02,0l.9-.14,2.56-.41,2.27-.36c.07-.01.12-.07.12-.14v-6.45c0-.07-.04-.12-.11-.14-.38-.09-.76-.14-1.15-.14-.67,0-1.32.14-1.93.41-1.72.76-2.83,2.47-2.83,4.35v2.89s.02.08.05.11c.03.02.06.03.09.03M34.76,4.42c-.11,0-.21,0-.32.03l-2.1.34-4.18.67-1.83.29-4.88.78v8.87l3.34-.53,1.54-.25v-5.2l1.73-.28,1.03-.16h0l2.37-.38.87-.14s-.04,3.57-.06,3.57h0c-.1.64-.33,1.23-.66,1.75-.56.87-1.4,1.55-2.39,1.89-.4.14-2.9.57-2.9.57l-4.88.78-3.64.58-2.09.33-2.25.36c-.8.13-1.5.61-1.9,1.32-.35.63-.57,1.34-.57,2.1v4.56c0,1.04.31,2.06.9,2.93,0,0,0,0,0,.01.6.88,1.3,1.48,2.54,1.7-1.02.27-1.92,1.02-2.53,1.84-.58.77-.92,1.73-.92,2.76v8.09l4.72-.76,5.73-.92,4.88-.78v-14.24l-1.17.19-3.7.59-1.3.21-.49.08s-.02,0-.02,0h-.08s-.02.02-.02.02c-.23.03-.46.05-.69.05-1.12,0-2.15-.4-2.94-1.06-.12-.1-.18-.24-.18-.4v-4.67l4.58-.73,1.15-.18v5.1l1.3-.21,1.06-.17,2.51-.4v-5.1l2.08-.33,2.07-.33c.38.29.72.63,1,1.02.54.76.86,1.69.86,2.69v1.1l4.44-.71.22-.03v-3.72c0-.36-.1-.71-.29-1.02-.06-.1-.12-.19-.19-.28-.72-.98-1.82-1.67-3.08-1.84,1.2-.3,2.22-1.06,2.85-2.1.03-.04.05-.09.08-.13.36-.64.54-1.37.54-2.11l.04-4.68c0-.1.01-.21.01-.31,0-.62-.12-1.21-.34-1.75-.31-.76-1.05-1.23-1.85-1.23h0ZM15.72,38.97v-2.89c0-1.88,1.13-3.5,2.74-4.22.57-.25,1.2-.39,1.87-.39.39,0,.76.05,1.12.14v6.45l-2.27.36-2.56.41-.9.14h0Z"></path>
  </g>
</svg></svg></g></g></svg>